HIERARCHY
ROOT Hips
{
	OFFSET 0.000000 83.214638 0.000000
	CHANNELS 6 Xposition Yposition Zposition Xrotation Yrotation Zrotation
	JOINT Pelvis
	{
		OFFSET 0.000000 0.000000 0.000000
		CHANNELS 3 Xrotation Yrotation Zrotation
		JOINT LeftUpLeg
		{
			OFFSET 8.479700 -4.795502 -0.379100
			CHANNELS 3 Xrotation Yrotation Zrotation
			JOINT LeftLeg
			{
				OFFSET 0.024144 -32.555107 0.112900
				CHANNELS 3 Xrotation Yrotation Zrotation
				JOINT LeftFoot
				{
					OFFSET -0.024144 -32.638630 -3.012600
					CHANNELS 3 Xrotation Yrotation Zrotation
					JOINT LeftToeBase
					{
						OFFSET 0.970200 -13.225400 11.864200
						CHANNELS 3 Xrotation Yrotation Zrotation
						End Site
						{
							OFFSET 0.000000 12.319262 0.000000
						}
					}
					JOINT LFootTongue
					{
						OFFSET 1.142400 -1.059800 6.665200
						CHANNELS 3 Xrotation Yrotation Zrotation
						End Site
						{
							OFFSET 0.000000 12.319262 0.000000
						}
					}
				}
				JOINT LeftPantLeg
				{
					OFFSET 0.918482 -16.533964 -2.284700
					CHANNELS 3 Xrotation Yrotation Zrotation
					End Site
					{
						OFFSET 0.350399 24.744368 0.000000
					}
				}
			}
		}
		JOINT RightUpLeg
		{
			OFFSET -8.479700 -4.795502 -0.379100
			CHANNELS 3 Xrotation Yrotation Zrotation
			JOINT RightLeg
			{
				OFFSET -0.023144 -32.555092 0.112900
				CHANNELS 3 Xrotation Yrotation Zrotation
				JOINT RightFoot
				{
					OFFSET 0.023144 -32.638641 -3.012700
					CHANNELS 3 Xrotation Yrotation Zrotation
					JOINT RightToeBase
					{
						OFFSET -0.970200 -13.225400 11.864200
						CHANNELS 3 Xrotation Yrotation Zrotation
						End Site
						{
							OFFSET 0.000000 12.319244 0.000000
						}
					}
					JOINT RFootTongue
					{
						OFFSET -1.142200 -1.059800 6.665200
						CHANNELS 3 Xrotation Yrotation Zrotation
						End Site
						{
							OFFSET 0.000000 12.319243 0.000000
						}
					}
				}
				JOINT RightPantLeg
				{
					OFFSET -0.919482 -16.533978 -2.284800
					CHANNELS 3 Xrotation Yrotation Zrotation
					End Site
					{
						OFFSET -0.350400 24.744419 0.000000
					}
				}
			}
		}
	}
	JOINT Spine
	{
		OFFSET 0.000000 7.722000 1.166200
		CHANNELS 3 Xrotation Yrotation Zrotation
		JOINT Spine1
		{
			OFFSET 0.000000 12.024101 0.248800
			CHANNELS 3 Xrotation Yrotation Zrotation
			JOINT Spine2
			{
				OFFSET 0.000000 11.502998 -0.491200
				CHANNELS 3 Xrotation Yrotation Zrotation
				JOINT Neck
				{
					OFFSET 0.000000 18.430702 -3.123100
					CHANNELS 3 Xrotation Yrotation Zrotation
					JOINT Head
					{
						OFFSET 0.000000 9.051102 1.034000
						CHANNELS 3 Xrotation Yrotation Zrotation
						JOINT HairB
						{
							OFFSET 0.208400 24.786102 24.822300
							CHANNELS 3 Xrotation Yrotation Zrotation
							End Site
							{
								OFFSET 0.000000 32.263779 0.000000
							}
						}
						JOINT HairA
						{
							OFFSET -7.081100 24.428299 23.196600
							CHANNELS 3 Xrotation Yrotation Zrotation
							End Site
							{
								OFFSET 0.000000 32.263779 0.000000
							}
						}
						JOINT Hat
						{
							OFFSET 16.728800 15.048294 -15.439601
							CHANNELS 3 Xrotation Yrotation Zrotation
							End Site
							{
								OFFSET 0.000000 32.263779 0.000000
							}
						}
					}
				}
				JOINT LeftShoulder
				{
					OFFSET 6.197800 13.665199 -4.064700
					CHANNELS 3 Xrotation Yrotation Zrotation
					JOINT LeftArm
					{
						OFFSET 7.778100 -0.187103 -1.709300
						CHANNELS 3 Xrotation Yrotation Zrotation
						JOINT LeftForeArm
						{
							OFFSET 22.049376 0.000000 0.000000
							CHANNELS 3 Xrotation Yrotation Zrotation
							JOINT LeftHand
							{
								OFFSET 23.009392 0.000000 0.000000
								CHANNELS 3 Xrotation Yrotation Zrotation
								JOINT LeftHandThumb1
								{
									OFFSET 3.507191 -2.063065 3.133727
									CHANNELS 3 Xrotation Yrotation Zrotation
									JOINT LeftHandThumb2
									{
										OFFSET 3.101337 -1.790558 1.790558
										CHANNELS 3 Xrotation Yrotation Zrotation
										JOINT LeftHandThumb3
										{
											OFFSET 3.058640 -1.765907 1.765906
											CHANNELS 3 Xrotation Yrotation Zrotation
											End Site
											{
												OFFSET -0.415260 3.926476 -0.049563
											}
										}
									}
								}
								JOINT LeftHandIndex1
								{
									OFFSET 11.334419 -0.901459 3.706815
									CHANNELS 3 Xrotation Yrotation Zrotation
									JOINT LeftHandIndex2
									{
										OFFSET 3.283112 0.000000 0.000000
										CHANNELS 3 Xrotation Yrotation Zrotation
										JOINT LeftHandIndex3
										{
											OFFSET 3.323853 0.000000 0.000000
											CHANNELS 3 Xrotation Yrotation Zrotation
											End Site
											{
												OFFSET -1.135597 3.097809 0.402452
											}
										}
									}
								}
								JOINT LeftHandMiddle1
								{
									OFFSET 11.335861 0.000000 0.000000
									CHANNELS 3 Xrotation Yrotation Zrotation
									JOINT LeftHandMiddle2
									{
										OFFSET 3.410492 0.000000 0.000000
										CHANNELS 3 Xrotation Yrotation Zrotation
										JOINT LeftHandMiddle3
										{
											OFFSET 3.312172 0.000000 0.000000
											CHANNELS 3 Xrotation Yrotation Zrotation
											End Site
											{
												OFFSET -1.150200 3.080154 0.400270
											}
										}
									}
								}
								JOINT LeftHandRing1
								{
									OFFSET 11.514786 -0.013176 -3.003090
									CHANNELS 3 Xrotation Yrotation Zrotation
									JOINT LeftHandRing2
									{
										OFFSET 3.053307 0.000000 0.000000
										CHANNELS 3 Xrotation Yrotation Zrotation
										JOINT LeftHandRing3
										{
											OFFSET 3.295807 0.000000 0.000000
											CHANNELS 3 Xrotation Yrotation Zrotation
											End Site
											{
												OFFSET -1.281006 3.013344 0.375733
											}
										}
									}
								}
								JOINT LeftHandPinky1
								{
									OFFSET 10.518692 -0.960396 -5.730441
									CHANNELS 3 Xrotation Yrotation Zrotation
									JOINT LeftHandPinky2
									{
										OFFSET 2.861649 0.000000 0.000000
										CHANNELS 3 Xrotation Yrotation Zrotation
										JOINT LeftHandPinky3
										{
											OFFSET 2.863380 0.000000 0.000000
											CHANNELS 3 Xrotation Yrotation Zrotation
											End Site
											{
												OFFSET -0.843597 2.711159 0.369971
											}
										}
									}
								}
							}
							JOINT LSleeve
							{
								OFFSET 6.676277 -0.344902 -1.011730
								CHANNELS 3 Xrotation Yrotation Zrotation
								End Site
								{
									OFFSET 0.000000 14.885353 0.000000
								}
							}
						}
					}
				}
				JOINT RightShoulder
				{
					OFFSET -6.197800 13.665199 -4.064700
					CHANNELS 3 Xrotation Yrotation Zrotation
					JOINT RightArm
					{
						OFFSET -7.778100 -0.187103 -1.709300
						CHANNELS 3 Xrotation Yrotation Zrotation
						JOINT RightForeArm
						{
							OFFSET -22.049376 0.000000 0.000000
							CHANNELS 3 Xrotation Yrotation Zrotation
							JOINT RightHand
							{
								OFFSET -23.009392 0.000000 0.000000
								CHANNELS 3 Xrotation Yrotation Zrotation
								JOINT RightHandThumb1
								{
									OFFSET -3.507191 -2.063065 3.133727
									CHANNELS 3 Xrotation Yrotation Zrotation
									JOINT RightHandThumb2
									{
										OFFSET -3.101337 -1.790558 1.790558
										CHANNELS 3 Xrotation Yrotation Zrotation
										JOINT RightHandThumb3
										{
											OFFSET -3.058640 -1.765907 1.765906
											CHANNELS 3 Xrotation Yrotation Zrotation
											End Site
											{
												OFFSET 0.415260 3.926476 -0.049563
											}
										}
									}
								}
								JOINT RightHandIndex1
								{
									OFFSET -11.334419 -0.901459 3.706815
									CHANNELS 3 Xrotation Yrotation Zrotation
									JOINT RightHandIndex2
									{
										OFFSET -3.283112 0.000000 0.000000
										CHANNELS 3 Xrotation Yrotation Zrotation
										JOINT RightHandIndex3
										{
											OFFSET -3.323853 0.000000 0.000000
											CHANNELS 3 Xrotation Yrotation Zrotation
											End Site
											{
												OFFSET 1.135597 3.097809 0.402452
											}
										}
									}
								}
								JOINT RightHandMiddle1
								{
									OFFSET -11.335861 0.000000 0.000000
									CHANNELS 3 Xrotation Yrotation Zrotation
									JOINT RightHandMiddle2
									{
										OFFSET -3.410492 0.000000 0.000000
										CHANNELS 3 Xrotation Yrotation Zrotation
										JOINT RightHandMiddle3
										{
											OFFSET -3.312172 0.000000 0.000000
											CHANNELS 3 Xrotation Yrotation Zrotation
											End Site
											{
												OFFSET 1.150200 3.080154 0.400270
											}
										}
									}
								}
								JOINT RightHandRing1
								{
									OFFSET -11.514786 -0.013176 -3.003090
									CHANNELS 3 Xrotation Yrotation Zrotation
									JOINT RightHandRing2
									{
										OFFSET -3.053307 0.000000 0.000000
										CHANNELS 3 Xrotation Yrotation Zrotation
										JOINT RightHandRing3
										{
											OFFSET -3.295807 0.000000 0.000000
											CHANNELS 3 Xrotation Yrotation Zrotation
											End Site
											{
												OFFSET 1.281006 3.013344 0.375733
											}
										}
									}
								}
								JOINT RightHandPinky1
								{
									OFFSET -10.518692 -0.960396 -5.730441
									CHANNELS 3 Xrotation Yrotation Zrotation
									JOINT RightHandPinky2
									{
										OFFSET -2.861649 0.000000 0.000000
										CHANNELS 3 Xrotation Yrotation Zrotation
										JOINT RightHandPinky3
										{
											OFFSET -2.863380 0.000000 0.000000
											CHANNELS 3 Xrotation Yrotation Zrotation
											End Site
											{
												OFFSET 0.843597 2.711159 0.369971
											}
										}
									}
								}
							}
							JOINT RSleeve
							{
								OFFSET -6.676277 -0.344902 -1.011730
								CHANNELS 3 Xrotation Yrotation Zrotation
								End Site
								{
									OFFSET 0.000000 14.885353 0.000000
								}
							}
						}
					}
				}
				JOINT Backpack
				{
					OFFSET 0.000000 -2.471497 36.677502
					CHANNELS 3 Xrotation Yrotation Zrotation
					End Site
					{
						OFFSET 0.000000 20.427315 0.000000
					}
				}
				JOINT Hood
				{
					OFFSET 0.000000 18.754097 -10.431000
					CHANNELS 3 Xrotation Yrotation Zrotation
					JOINT Hood1
					{
						OFFSET 0.000000 -5.011002 -7.685901
						CHANNELS 3 Xrotation Yrotation Zrotation
						End Site
						{
							OFFSET 0.000000 9.175140 0.000000
						}
					}
				}
				JOINT LHoodieString
				{
					OFFSET 5.250500 16.397697 3.089900
					CHANNELS 3 Xrotation Yrotation Zrotation
					JOINT LHoodieString1
					{
						OFFSET 0.257700 -6.364304 3.694600
						CHANNELS 3 Xrotation Yrotation Zrotation
						JOINT LHoodieString2
						{
							OFFSET 0.000000 -9.643799 2.679100
							CHANNELS 3 Xrotation Yrotation Zrotation
							End Site
							{
								OFFSET 0.000000 10.009018 0.000000
							}
						}
					}
				}
				JOINT RHoodieString
				{
					OFFSET -5.250500 16.397697 3.089900
					CHANNELS 3 Xrotation Yrotation Zrotation
					JOINT RHoodieString1
					{
						OFFSET -0.257700 -6.364304 3.694600
						CHANNELS 3 Xrotation Yrotation Zrotation
						JOINT RHoodieString2
						{
							OFFSET 0.000000 -9.643799 2.679100
							CHANNELS 3 Xrotation Yrotation Zrotation
							End Site
							{
								OFFSET 0.000000 10.009018 0.000000
							}
						}
					}
				}
			}
			JOINT LBackpack_Strap
			{
				OFFSET 15.223200 -7.719803 -6.610900
				CHANNELS 3 Xrotation Yrotation Zrotation
				End Site
				{
					OFFSET 0.000000 16.040596 0.000000
				}
			}
			JOINT RBackpack_Strap
			{
				OFFSET -15.223000 -7.719803 -6.610900
				CHANNELS 3 Xrotation Yrotation Zrotation
				End Site
				{
					OFFSET 0.000000 16.040596 0.000000
				}
			}
		}
	}
	JOINT BoyFacialAnim_Joint
	{
		OFFSET 1.000000 -82.208099 -1.550900
		CHANNELS 3 Xrotation Yrotation Zrotation
		End Site
		{
			OFFSET 0.000000 30.012791 0.000000
		}
	}
}
MOTION
Frames: 5
Frame Time: 0.033333
-0.042485 81.789688 0.378528 -3.660936 3.318452 2.265018 0.000000 0.000000 0.000000 -2.333657 8.368320 3.285192 15.434443 3.903796 0.701634 -8.836702 0.471591 -3.891978 -0.000000 -0.000000 0.000000 -0.000000 -0.000000 0.000000 -0.000000 -0.000001 -0.000000 -3.511829 -11.741095 -9.989665 17.552215 -4.986220 -1.305642 -9.430983 -1.914212 8.680941 0.000000 0.000000 -0.000000 0.000000 0.000000 -0.000000 -0.000000 -0.000000 0.000000 4.352439 -0.757674 -0.604515 1.013936 -0.168029 0.060980 1.013886 -0.166935 0.079446 0.942277 -0.546185 0.125864 -6.488985 -5.987611 -1.422313 -0.000000 -0.000000 -0.000000 -0.000000 -0.000000 -0.000000 -0.000000 -0.000000 -0.000000 0.686220 -2.081363 -16.857204 4.778416 -6.136918 -37.933870 0.000011 -66.118943 0.000013 -4.833215 -7.576971 -60.543036 -7.220042 -16.942351 15.004580 8.345936 0.690055 4.880071 0.000000 0.000001 -0.000001 -1.007750 -1.257128 -15.186627 1.002363 3.278837 -33.989695 -0.000001 -0.000000 0.000002 0.805740 5.211346 -29.108828 1.066683 3.372112 -35.098518 0.000003 -0.000002 -0.000000 6.461196 12.582072 -37.568916 1.949515 4.363755 -48.129109 -0.000000 0.000000 0.000001 9.161931 25.681001 -47.169877 0.954749 3.207193 -33.147748 0.000001 0.000001 -0.000003 0.000000 0.000002 0.000001 0.088522 8.205039 21.087101 -3.899874 6.709558 55.252576 -0.000008 9.850084 0.000014 33.602424 9.190948 0.661867 9.076638 11.156497 -7.011568 22.198062 -26.324177 10.013899 0.000001 0.000001 -0.000001 3.038403 7.564681 51.714583 1.573272 -3.491498 48.501894 -0.000001 0.000001 0.000005 -3.185440 -4.004872 67.076836 1.304821 -3.234643 43.928300 0.000001 0.000002 0.000000 -4.626535 -1.781869 57.138282 2.278815 -4.005214 59.262751 -0.000002 -0.000001 0.000002 -7.034701 -9.338186 44.934196 1.908711 -3.761132 53.801625 -0.000002 0.000000 -0.000001 -0.000001 0.000001 -0.000001 0.000000 -0.000000 -0.000000 0.000000 -0.000000 -0.000000 0.000000 -0.000000 -0.000000 0.000000 -0.000000 -0.000000 0.000000 -0.000000 -0.000000 0.000000 0.000000 -0.000000 0.000000 -0.000000 -0.000000 0.000000 -0.000000 -0.000000 0.000000 0.000000 -0.000000 0.000000 -0.000000 -0.000000 0.000000 -0.000000 -0.000000 0.000000 0.000000 0.000000 
-0.091267 81.797867 0.400868 -3.544671 3.685706 2.276937 0.000000 0.000000 0.000000 -2.391268 7.271968 3.246231 15.276234 4.385858 0.591210 -8.692039 0.657966 -4.026600 -0.000000 0.000001 -0.000000 -0.000000 0.000001 0.000000 -0.000000 -0.000000 0.000001 -3.748137 -13.011356 -10.134426 17.542304 -4.180524 -1.344948 -9.499555 -1.789771 8.496210 0.000000 -0.000001 0.000000 0.000000 -0.000001 0.000000 0.000001 0.000001 -0.000000 4.351944 -0.757293 -0.525163 1.025916 -0.168030 0.077356 1.025799 -0.166935 0.092934 0.874039 -0.469648 0.158267 -7.557642 -5.162994 -1.064153 0.000000 0.000000 -0.000000 0.000000 0.000000 -0.000000 0.000000 0.000000 -0.000000 0.683312 -2.116129 -16.777880 4.830454 -6.385308 -37.950399 -0.000008 -66.091711 -0.000030 -4.782589 -7.513030 -60.560760 -7.220043 -16.942347 15.004580 8.333197 0.621689 4.901666 0.000002 0.000002 0.000000 -1.009629 -1.284003 -15.132731 1.005686 3.283748 -34.047704 -0.000003 0.000001 0.000000 0.803007 5.206458 -29.054026 1.066698 3.372117 -35.098515 -0.000000 -0.000001 -0.000002 6.466525 12.581798 -37.598941 1.953753 4.367534 -48.184895 0.000001 0.000001 -0.000004 9.133974 25.646356 -47.134722 0.954137 3.206243 -33.136789 -0.000001 -0.000003 -0.000002 0.000002 0.000001 0.000001 -0.223055 8.913842 20.867671 -1.540693 6.312743 54.621494 -0.000000 14.647525 0.000009 32.818014 8.106580 1.877615 8.140126 11.831640 -8.924668 22.049937 -27.059994 9.786199 0.000002 0.000001 0.000003 8.093968 9.020434 33.473459 1.583828 -3.500791 48.675012 -0.000000 0.000003 0.000004 -3.734202 -2.866955 60.590950 1.218548 -3.142753 42.377468 0.000000 0.000001 -0.000002 -6.203648 -0.548453 56.233589 2.330643 -4.035529 60.001982 -0.000001 -0.000005 -0.000000 -8.935762 -11.231502 56.733221 1.571002 -3.489500 48.464799 -0.000001 0.000001 -0.000001 -0.000002 -0.000001 0.000001 0.000000 0.000000 0.000000 0.000000 0.000000 0.000000 0.000000 0.000000 0.000000 0.000000 0.000000 0.000000 0.000000 0.000000 -0.000000 0.000000 0.000000 -0.000000 0.000000 0.000000 0.000000 0.000000 0.000000 -0.000000 0.000000 0.000000 -0.000000 0.000000 -0.000000 0.000000 0.000000 -0.000000 0.000000 0.000000 0.000000 0.000000 
-0.161694 81.801903 0.410644 -3.446775 4.155796 2.283285 0.000000 -0.000000 -0.000000 -2.492669 6.126555 3.241029 15.168361 4.794307 0.480716 -8.542670 0.857069 -4.179676 -0.000000 0.000000 -0.000000 -0.000000 0.000000 -0.000000 0.000000 0.000001 0.000000 -3.945361 -14.334994 -10.246802 17.514642 -3.437354 -1.407767 -9.575295 -1.662855 8.351002 0.000000 0.000001 0.000000 0.000000 0.000001 0.000000 0.000000 0.000001 -0.000000 4.409141 -0.754570 -0.432434 1.048088 -0.168029 0.096851 1.047895 -0.166936 0.109296 0.805571 -0.406423 0.219563 -8.792326 -4.409628 -0.870776 0.000000 0.000000 0.000000 0.000000 0.000000 0.000000 0.000000 0.000000 0.000000 0.686243 -2.173264 -16.620842 4.885650 -6.682948 -38.015057 -0.000009 -66.057942 -0.000006 -4.760871 -7.417519 -60.628304 -7.220043 -16.942351 15.004580 8.324563 0.573550 4.916522 -0.000000 -0.000001 -0.000003 -1.015489 -1.298748 -15.154009 1.007693 3.286713 -34.082822 -0.000002 -0.000001 -0.000004 0.802373 5.205312 -29.041018 1.066700 3.372102 -35.098532 0.000004 -0.000001 -0.000002 6.466044 12.581814 -37.596206 1.955669 4.369252 -48.209982 0.000002 -0.000004 -0.000001 9.121070 25.634084 -47.113665 0.952539 3.203820 -33.108502 -0.000003 0.000000 -0.000002 0.000004 0.000000 0.000000 -0.569038 9.851423 20.637780 1.575568 6.220318 53.808920 -0.000003 20.969458 0.000031 32.696812 6.875127 3.417899 7.120055 12.643158 -11.068223 22.521261 -28.481773 10.164054 0.000000 0.000001 -0.000001 11.764424 8.272441 20.232566 1.460520 -3.388586 46.623011 -0.000001 -0.000001 0.000002 -3.993728 -1.870332 55.048118 1.112864 -3.023049 40.412815 0.000000 0.000000 -0.000000 -6.877290 0.018545 55.792533 2.315586 -4.026813 59.787836 0.000001 0.000003 0.000003 -10.177193 -13.620755 68.972521 1.134505 -3.048254 40.821247 0.000003 -0.000001 0.000000 0.000001 0.000000 -0.000001 -0.000000 -0.000000 -0.000000 -0.000000 -0.000000 -0.000000 -0.000000 -0.000000 -0.000000 -0.000000 -0.000000 -0.000000 -0.000000 -0.000000 -0.000000 0.000000 0.000000 -0.000000 -0.000000 -0.000000 -0.000000 -0.000000 -0.000000 -0.000000 0.000000 0.000000 -0.000000 0.000000 -0.000000 -0.000000 0.000000 -0.000000 -0.000000 0.000000 -0.000000 -0.000000 
-0.258670 81.810188 0.400276 -3.353137 4.709873 2.320593 -0.000000 -0.000000 -0.000000 -2.586754 4.894876 3.202626 14.992098 5.220279 0.392724 -8.325229 1.066008 -4.345469 -0.000000 0.000001 -0.000000 -0.000000 0.000001 0.000000 -0.000000 0.000003 -0.000000 -4.135251 -15.722689 -10.348057 17.473878 -2.746861 -1.501976 -9.702149 -1.519938 8.143322 0.000000 0.000003 -0.000000 0.000000 0.000003 -0.000000 -0.000001 -0.000001 -0.000000 4.516498 -0.693478 -0.358294 1.084862 -0.153792 0.114198 1.084656 -0.150452 0.123537 0.714182 -0.361625 0.300332 -10.157174 -3.791711 -0.737233 -0.000000 0.000000 -0.000000 -0.000000 0.000000 -0.000000 -0.000000 0.000000 -0.000000 0.689961 -2.215903 -16.364732 4.934000 -7.125433 -38.103033 0.000009 -65.990931 0.000019 -4.806884 -7.342818 -60.714521 -7.220042 -16.942349 15.004582 8.319243 0.546618 4.925048 -0.000002 0.000001 0.000000 -1.020021 -1.307309 -15.177930 1.008899 3.288501 -34.103879 -0.000002 0.000001 0.000000 0.803460 5.207278 -29.063268 1.066700 3.372122 -35.098518 0.000002 -0.000003 -0.000000 6.469955 12.581611 -37.618349 1.954078 4.367831 -48.189000 -0.000001 0.000001 -0.000004 9.120208 25.628092 -47.115447 0.952305 3.203455 -33.104035 0.000000 -0.000001 -0.000000 -0.000002 0.000002 -0.000001 -0.950329 11.030507 20.396038 5.067122 6.459622 52.774833 0.000005 28.391517 -0.000012 33.450141 5.701693 4.556627 10.224217 13.175252 -11.476674 22.451993 -28.355191 10.422105 -0.000000 0.000001 0.000000 13.001901 7.040451 14.690391 1.319100 -3.249359 44.180710 -0.000002 -0.000001 0.000003 -4.175316 -1.017675 50.758561 1.000256 -2.885743 38.227971 0.000001 -0.000001 0.000001 -7.559648 0.162110 57.145170 2.224236 -3.972359 58.478256 0.000003 0.000002 0.000004 -11.423923 -15.612486 78.161372 0.786316 -2.591517 33.752667 0.000001 0.000002 0.000000 0.000002 0.000000 0.000001 -0.000000 -0.000000 -0.000000 -0.000000 -0.000000 -0.000000 -0.000000 -0.000000 -0.000000 -0.000000 -0.000000 -0.000000 -0.000000 -0.000000 0.000000 -0.000000 -0.000000 0.000000 -0.000000 -0.000000 -0.000000 -0.000000 -0.000000 0.000000 -0.000000 -0.000000 0.000000 0.000000 0.000000 -0.000000 0.000000 0.000000 -0.000000 -0.000000 -0.000000 -0.000000 
-0.390821 81.813004 0.375257 -3.280933 5.294530 2.406186 -0.000000 -0.000000 -0.000000 -2.688341 3.592449 3.129051 14.825482 5.678160 0.323268 -8.082743 1.284724 -4.511677 -0.000000 -0.000001 0.000000 -0.000000 -0.000001 0.000000 -0.000001 -0.000003 0.000000 -4.393446 -17.146186 -10.495624 17.562716 -2.049111 -1.604028 -9.907556 -1.391024 7.893574 0.000000 0.000001 0.000000 0.000000 0.000001 0.000000 0.000001 0.000001 0.000000 4.659926 -0.511212 -0.297222 1.134421 -0.106698 0.120162 1.134308 -0.102767 0.123007 0.604541 -0.341017 0.379749 -11.607900 -3.383114 -0.596981 -0.000000 -0.000000 -0.000000 -0.000000 -0.000000 -0.000000 -0.000000 -0.000000 -0.000000 0.696345 -2.237155 -16.071700 4.978697 -7.722857 -38.130873 0.000011 -65.919276 0.000021 -4.819535 -7.321363 -60.636719 -7.220045 -16.942351 15.004575 8.313129 0.515577 4.935265 -0.000001 0.000002 -0.000004 -1.021095 -1.323982 -15.143772 1.005407 3.283331 -34.042564 -0.000002 0.000001 0.000000 0.803977 5.208209 -29.073650 1.066679 3.372118 -35.098515 0.000001 -0.000002 -0.000000 6.479810 12.581089 -37.673817 1.952934 4.366814 -48.174055 0.000001 -0.000001 -0.000002 9.111914 25.609926 -47.115946 0.952202 3.203298 -33.102382 0.000002 -0.000004 0.000001 -0.000001 0.000001 -0.000001 -1.347093 12.265650 20.131414 8.343447 6.991563 51.473528 0.000002 36.443004 -0.000012 34.994218 4.340691 5.660786 15.540270 14.053850 -11.288253 22.249186 -28.051906 10.762637 0.000001 0.000001 -0.000003 13.165095 6.219148 15.074072 1.200282 -3.122671 42.043349 -0.000001 -0.000001 -0.000000 -4.603271 -0.135863 48.039647 0.897318 -2.750197 36.134522 0.000001 -0.000001 -0.000002 -9.139195 0.132176 61.063271 2.053258 -3.862531 55.975794 -0.000000 -0.000003 0.000003 -12.946122 -16.853135 82.911468 0.674312 -2.415662 31.188870 0.000000 -0.000002 0.000002 -0.000002 0.000003 -0.000001 0.000001 0.000000 0.000000 0.000001 0.000000 0.000000 0.000001 0.000000 0.000000 0.000001 0.000000 0.000000 0.000001 0.000000 0.000000 0.000000 0.000000 0.000000 0.000001 0.000000 0.000000 0.000001 0.000000 0.000000 0.000000 0.000000 0.000000 0.000000 0.000000 -0.000000 0.000000 0.000000 -0.000000 -0.000000 -0.000000 -0.000000 
